<svg width="176" height="180" xmlns="http://www.w3.org/2000/svg" preserveAspectRatio="xMidYMid" version="1.1">

 <g>
  <title>Layer 1</title>
  <g stroke="null" id="svg_1">
   <path stroke="null" id="svg_2" fill="#4285F4" d="m169.87799,93.33993c0,-6.62293 -0.56124,-11.45593 -1.77586,-16.46786l-78.98071,0l0,29.89266l46.35989,0c-0.93432,7.42874 -5.98161,18.61627 -17.19801,26.13386l-0.15722,1.00078l24.97224,18.52434l1.73011,0.16536c15.88932,-14.05167 25.04956,-34.72627 25.04956,-59.24914"/>
   <path stroke="null" id="svg_3" fill="#34A853" d="m89.12142,172.1c22.71246,0 41.77977,-7.16034 55.707,-19.51093l-26.54513,-19.69048c-7.10344,4.74353 -16.63742,8.055 -29.16188,8.055c-22.2453,0 -41.12574,-14.05105 -47.8561,-33.47252l-0.98652,0.08021l-25.96649,19.24253l-0.33958,0.90391c13.83316,26.31279 42.24758,44.39227 75.14869,44.39227"/>
   <path stroke="null" id="svg_4" fill="#FBBC05" d="m41.26532,107.48107c-1.77586,-5.01193 -2.80362,-10.38234 -2.80362,-15.93107c0,-5.54934 1.02776,-10.91914 2.71019,-15.93107l-0.04704,-1.06742l-26.29189,-19.55165l-0.86022,0.3918c-5.70131,10.91914 -8.97274,23.18088 -8.97274,36.15834c0,12.97747 3.27142,25.23859 8.97274,36.15773l27.29259,-20.22666"/>
   <path stroke="null" id="svg_5" fill="#EB4335" d="m89.12142,42.14579c15.79588,0 26.45105,6.53347 32.52674,11.99334l23.74086,-22.19614c-14.58062,-12.97747 -33.55514,-20.943 -56.2676,-20.943c-32.90111,0 -61.31553,18.07886 -75.14869,44.39166l27.19915,20.22727c6.82379,-19.42147 25.70423,-33.47314 47.94953,-33.47314"/>
  </g>
 </g>
</svg>