<svg width="176" height="180" xmlns="http://www.w3.org/2000/svg" version="1.1" xml:space="preserve">
 <g>
  <title>Layer 1</title>
  <g id="svg_1">
   <path class="st0" d="m172.3,53.4c-2,-7.6 -8,-13.6 -15.6,-15.7c-13.7,-3.7 -68.7,-3.7 -68.7,-3.7s-55,0 -68.8,3.7c-7.6,2 -13.5,8 -15.6,15.7c-3.6,13.8 -3.6,42.6 -3.6,42.6s0,28.8 3.7,42.6c2,7.6 8,13.6 15.6,15.7c13.7,3.7 68.7,3.7 68.7,3.7s55,0 68.8,-3.7c7.6,-2 13.5,-8 15.6,-15.7c3.6,-13.8 3.6,-42.6 3.6,-42.6s0,-28.8 -3.7,-42.6z" fill="#EE3124" id="svg_2"/>
   <polygon class="st1" points="70,122.19999694824219 70,69.80000305175781 116,96 " fill="#FFFFFF" id="svg_3"/>
  </g>
 </g>

</svg>